<svg data-v-fde0c5aa="" xmlns="http://www.w3.org/2000/svg" viewBox="0 0 300 300" class="iconLeft"><!----><defs data-v-fde0c5aa=""><!----></defs><rect data-v-fde0c5aa="" fill="#00242B" x="0" y="0" width="300px" height="300px" class="logo-background-square"></rect><defs data-v-fde0c5aa=""><!----></defs><g data-v-fde0c5aa="" id="3c38e282-b260-4346-9c07-b3576fbb9b53" fill="#7DE38D" transform="matrix(3.220536703563167,0,0,3.220536703563167,102.7733941239434,122.67374640811427)"><path d="M6.51 14L3.36 9.42L2.59 9.42L2.59 14L1.60 14L1.60 4.20L2.59 4.20L2.59 8.53L3.36 8.53L6.27 4.20L7.45 4.20L4.21 8.99L7.69 14L6.51 14ZM16.20 13.51L15.51 14.17L14.64 13.30L14.64 13.30Q14.27 13.65 13.67 13.90L13.67 13.90L13.67 13.90Q13.08 14.15 12.26 14.15L12.26 14.15L12.26 14.15Q10.91 14.15 10.23 13.59L10.23 13.59L10.23 13.59Q9.55 13.02 9.55 11.86L9.55 11.86L9.55 11.86Q9.55 10.68 10.27 10.13L10.27 10.13L10.27 10.13Q10.99 9.58 12.57 9.58L12.57 9.58L14.35 9.58L14.35 8.97L14.35 8.97Q14.35 8.32 13.90 8.03L13.90 8.03L13.90 8.03Q13.45 7.74 12.59 7.74L12.59 7.74L12.59 7.74Q11.24 7.74 10.70 8.36L10.70 8.36L10.01 7.69L10.01 7.69Q10.39 7.31 11.07 7.07L11.07 7.07L11.07 7.07Q11.76 6.83 12.68 6.83L12.68 6.83L12.68 6.83Q13.90 6.83 14.62 7.32L14.62 7.32L14.62 7.32Q15.34 7.81 15.34 8.75L15.34 8.75L15.34 12.66L16.20 13.51ZM10.56 11.86L10.56 11.86Q10.56 12.63 11.03 12.94L11.03 12.94L11.03 12.94Q11.49 13.26 12.49 13.26L12.49 13.26L12.49 13.26Q13.03 13.26 13.55 13.02L13.55 13.02L13.55 13.02Q14.07 12.78 14.35 12.45L14.35 12.45L14.35 10.47L13.02 10.47L13.02 10.47Q12.03 10.47 11.51 10.58L11.51 10.58L11.51 10.58Q10.99 10.68 10.77 10.98L10.77 10.98L10.77 10.98Q10.56 11.27 10.56 11.86L10.56 11.86ZM21 5.15L21 5.15Q20.61 5.15 20.34 4.89L20.34 4.89L20.34 4.89Q20.06 4.62 20.06 4.23L20.06 4.23L20.06 4.23Q20.06 3.84 20.34 3.57L20.34 3.57L20.34 3.57Q20.61 3.30 21 3.30L21 3.30L21 3.30Q21.39 3.30 21.66 3.57L21.66 3.57L21.66 3.57Q21.92 3.84 21.92 4.23L21.92 4.23L21.92 4.23Q21.92 4.62 21.66 4.89L21.66 4.89L21.66 4.89Q21.39 5.15 21 5.15L21 5.15ZM21.53 13.10L23.62 13.10L23.62 14L20.52 14L20.52 7.90L18.05 7.90L18.05 7L21.53 7L21.53 13.10ZM29.43 14.15L29.43 14.15Q28.53 14.15 27.70 13.87L27.70 13.87L27.70 13.87Q26.87 13.59 26.45 13.05L26.45 13.05L27.33 12.46L27.33 12.46Q27.57 12.81 28.19 13.03L28.19 13.03L28.19 13.03Q28.81 13.24 29.46 13.24L29.46 13.24L29.46 13.24Q30.23 13.24 30.79 12.96L30.79 12.96L30.79 12.96Q31.36 12.67 31.36 12.07L31.36 12.07L31.36 12.07Q31.36 11.58 30.86 11.32L30.86 11.32L30.86 11.32Q30.35 11.06 29.93 10.96L29.93 10.96L29.93 10.96Q29.50 10.85 29.41 10.82L29.41 10.82L29.41 10.82Q28.74 10.64 28.22 10.45L28.22 10.45L28.22 10.45Q27.71 10.26 27.24 9.82L27.24 9.82L27.24 9.82Q26.77 9.38 26.77 8.69L26.77 8.69L26.77 8.69Q26.77 8.06 27.20 7.64L27.20 7.64L27.20 7.64Q27.62 7.22 28.27 7.03L28.27 7.03L28.27 7.03Q28.91 6.83 29.55 6.83L29.55 6.83L29.55 6.83Q30.35 6.83 31.08 7.13L31.08 7.13L31.08 7.13Q31.81 7.42 32.16 7.97L32.16 7.97L31.30 8.53L31.30 8.53Q31.07 8.13 30.56 7.94L30.56 7.94L30.56 7.94Q30.06 7.74 29.55 7.74L29.55 7.74L29.55 7.74Q28.95 7.74 28.40 7.99L28.40 7.99L28.40 7.99Q27.85 8.23 27.85 8.75L27.85 8.75L27.85 8.75Q27.85 9.18 28.28 9.41L28.28 9.41L28.28 9.41Q28.71 9.65 29.09 9.75L29.09 9.75L29.09 9.75Q29.47 9.86 29.57 9.88L29.57 9.88L29.57 9.88Q29.67 9.91 30.44 10.10L30.44 10.10L30.44 10.10Q31.22 10.29 31.83 10.80L31.83 10.80L31.83 10.80Q32.44 11.31 32.44 12.01L32.44 12.01L32.44 12.01Q32.44 12.73 32.00 13.21L32.00 13.21L32.00 13.21Q31.56 13.69 30.87 13.92L30.87 13.92L30.87 13.92Q30.18 14.15 29.43 14.15L29.43 14.15ZM38.32 6.85L38.32 6.85Q39.54 6.85 40.08 7.57L40.08 7.57L40.08 7.57Q40.63 8.30 40.63 10.00L40.63 10.00L40.63 14L39.62 14L39.62 10.32L39.62 10.32Q39.62 9.35 39.52 8.82L39.52 8.82L39.52 8.82Q39.41 8.29 39.09 8.02L39.09 8.02L39.09 8.02Q38.77 7.76 38.12 7.76L38.12 7.76L38.12 7.76Q37.53 7.76 37.05 7.99L37.05 7.99L37.05 7.99Q36.57 8.23 36.26 8.61L36.26 8.61L36.26 8.61Q35.95 8.99 35.85 9.38L35.85 9.38L35.85 14L34.85 14L34.85 2.80L35.85 2.80L35.85 7.95L35.85 7.95Q36.26 7.43 36.88 7.14L36.88 7.14L36.88 7.14Q37.51 6.85 38.32 6.85L38.32 6.85ZM46.20 5.15L46.20 5.15Q45.81 5.15 45.53 4.89L45.53 4.89L45.53 4.89Q45.26 4.62 45.26 4.23L45.26 4.23L45.26 4.23Q45.26 3.84 45.53 3.57L45.53 3.57L45.53 3.57Q45.81 3.30 46.20 3.30L46.20 3.30L46.20 3.30Q46.59 3.30 46.86 3.57L46.86 3.57L46.86 3.57Q47.12 3.84 47.12 4.23L47.12 4.23L47.12 4.23Q47.12 4.62 46.86 4.89L46.86 4.89L46.86 4.89Q46.59 5.15 46.20 5.15L46.20 5.15ZM46.73 13.10L48.82 13.10L48.82 14L45.72 14L45.72 7.90L43.25 7.90L43.25 7L46.73 7L46.73 13.10Z"></path></g><defs data-v-fde0c5aa=""><!----></defs><g data-v-fde0c5aa="" id="0f11cef6-47a1-48e9-bb96-865aa9e6fdc1" stroke="none" fill="#7DE38D" transform="matrix(1.7164454039508765,0,0,1.7164454039508765,40,122.53687353678598)"><path d="M9.382 8.675h13.943v13.943L32 31.293V0H.707zM22.618 23.325H8.675V9.382L0 .707V32h31.293z"></path></g><!----></svg>